<svg xmlns="http://www.w3.org/2000/svg" viewBox="0 0 56.277 66.939">
  <defs>
    <style>
      .cls-1 {
        fill: #555;
      }
    </style>
  </defs>
  <g id="notifications" transform="translate(-67.723 -513.361)">
    <path id="Path_1029" data-name="Path 1029" class="cls-1" d="M68.32,58.49l-3.646-5.817V39.564A23.292,23.292,0,0,0,48.773,17.3v-3.49a7.912,7.912,0,0,0-15.823,0V17.3a23.292,23.292,0,0,0-15.9,22.261V52.672L13.4,58.49a4.7,4.7,0,0,0-.078,4.732,4.545,4.545,0,0,0,4.033,2.4h15.2a8.381,8.381,0,0,0,16.6,0h15.2a4.545,4.545,0,0,0,4.033-2.4A4.7,4.7,0,0,0,68.32,58.49ZM40.862,9a4.833,4.833,0,0,1,4.809,4.809v2.715H36.053V13.812A4.833,4.833,0,0,1,40.862,9ZM35.9,19.629h9.928A20.345,20.345,0,0,1,61.572,39.564V51.586H20.152V39.564A20.345,20.345,0,0,1,35.9,19.629Zm4.964,50.03a5.379,5.379,0,0,1-5.119-4.033H45.981A5.379,5.379,0,0,1,40.862,69.659ZM65.683,61.67a1.434,1.434,0,0,1-1.319.853h-47a1.434,1.434,0,0,1-1.319-.853,1.409,1.409,0,0,1,0-1.551l3.413-5.43H62.27l3.413,5.43A1.409,1.409,0,0,1,65.683,61.67Z" transform="translate(55 507.461)"/>
  </g>
</svg>
